<svg xmlns="http://www.w3.org/2000/svg" viewBox="0 0 32 32"><path fill="#6c5ce7" stroke="#000" stroke-width="3" d="M6 8v16c0 2 2 4 4 4h8c2 0 4-2 4-4V8H6z"/><path fill="#6c5ce7" stroke="#fff" stroke-width="1.5" d="M6 8v16c0 2 2 4 4 4h8c2 0 4-2 4-4V8H6z"/><path fill="none" stroke="#000" stroke-width="3" d="M22 12v8c2 0 4-2 4-4s-2-4-4-4z"/><path fill="none" stroke="#fff" stroke-width="1.5" d="M22 12v8c2 0 4-2 4-4s-2-4-4-4z"/><path fill="none" stroke="#000" stroke-linecap="round" stroke-width="3" d="M10 4c0 0 2-2 4 0s4 0 4 0"><animate attributeName="d" dur="2s" repeatCount="indefinite" values="M10 4c0 0 2-2 4 0s4 0 4 0; M10 2c0 0 2-2 4 0s4 0 4 0; M10 4c0 0 2-2 4 0s4 0 4 0"/></path><path fill="none" stroke="#fff" stroke-linecap="round" stroke-width="1.5" d="M10 4c0 0 2-2 4 0s4 0 4 0"><animate attributeName="d" dur="2s" repeatCount="indefinite" values="M10 4c0 0 2-2 4 0s4 0 4 0; M10 2c0 0 2-2 4 0s4 0 4 0; M10 4c0 0 2-2 4 0s4 0 4 0"/></path></svg>